<?xml version="1.0" encoding="UTF-8"?>
<svg version="1.1" xmlns="http://www.w3.org/2000/svg" width="300" height="150">
<path d="M0 0 C4.62 0 9.24 0 14 0 C14 22.77 14 45.54 14 69 C9.38 69 4.76 69 0 69 C-0.33 68.01 -0.66 67.02 -1 66 C-1.56847656 66.28875 -2.13695312 66.5775 -2.72265625 66.875 C-9.91408965 70.33265078 -14.80292828 70.85987543 -22.5 68.4375 C-29.87988107 65.53211472 -34.17207589 61.40998318 -37.4375 54.1875 C-40.24840924 46.1441623 -39.81188187 39.08246951 -36.31640625 31.32421875 C-32.60239748 24.76684422 -27.61081007 21.13253353 -20.546875 18.66015625 C-12.63135996 16.60843533 -8.62925753 18.18537123 -1 22 C-0.67 14.74 -0.34 7.48 0 0 Z M-22.8125 37.25 C-24.33107326 40.76669597 -24.40718483 43.19960827 -24 47 C-22.191879 51.09206332 -19.83654027 53.69807584 -16 56 C-12.01881649 56.72678807 -8.90913261 56.38385599 -5.1875 54.8125 C-1.26007719 51.55834967 -0.12865911 49.15793195 0.4375 44.0625 C0.26839443 39.80265006 -1.21139819 37.25336878 -4 34 C-7.0281958 31.6207033 -10.24769379 31.63724554 -14.0390625 31.75 C-18.11783569 32.27000296 -20.30019848 34.13128087 -22.8125 37.25 Z " fill="#E6FD4B" transform="translate(198,34)"/>
<path d="M0 0 C14.19 0 28.38 0 43 0 C43 16.5 43 33 43 50 C38.05 50 33.1 50 28 50 C28 49.01 28 48.02 28 47 C27.0925 47.474375 26.185 47.94875 25.25 48.4375 C19.17179371 51.35971456 13.49040469 51.97980108 6.9375 49.9375 C2.41644365 48.02508435 -0.79908118 45.44200039 -3 41 C-3.98943048 35.75601848 -3.61845977 31.47892553 -1.5625 26.5625 C3.64825563 21.35174437 8.94410893 19.76847663 16.25 19.6875 C19.95145003 19.78052586 23.38754531 20.18917531 27 21 C27.33 18.36 27.66 15.72 28 13 C18.76 13 9.52 13 0 13 C0 8.71 0 4.42 0 0 Z M11 33 C11.16666667 35.08333333 11.16666667 35.08333333 12 37 C15.06429776 38.53214888 17.6165642 38.22938548 21 38 C24.5386994 36.34860695 25.81070153 35.28394771 28 32 C26.06658053 30.06658053 22.62520879 30.82550867 20.0625 30.8125 C18.16177734 30.79123047 18.16177734 30.79123047 16.22265625 30.76953125 C12.91056001 30.65286303 12.91056001 30.65286303 11 33 Z " fill="#E6FD4A" transform="translate(110,53)"/>
<path d="M0 0 C3.23732459 2.25741692 4.75962515 4.65590397 5.46875 8.62109375 C5.7154689 13.16688946 5.67249682 16.86720252 2.8125 20.5625 C-2.72301235 25.35994404 -7.66757268 25.28801139 -14.6875 25.1875 C-15.55439453 25.18685547 -16.42128906 25.18621094 -17.31445312 25.18554688 C-23.71861434 25.14069283 -23.71861434 25.14069283 -26 24 C-24.67705584 27.1332888 -23.49681215 29.53423861 -21 31.875 C-15.72051848 33.85480557 -10.00330825 34.06263232 -4.6484375 32.16796875 C-2.69981464 31.19365732 -0.85878349 30.13431331 1 29 C2.32815854 28.32308264 3.66025171 27.65367939 5 27 C5.16249454 29.41936317 5.28097817 31.82781859 5.375 34.25 C5.42527344 34.93191406 5.47554688 35.61382812 5.52734375 36.31640625 C5.5859375 38.328125 5.5859375 38.328125 5 42 C-0.81604625 47.08904047 -8.28368545 48.5035832 -15.90234375 48.24609375 C-23.72676091 47.32814537 -30.37571326 44.58531939 -36 39 C-41.2658206 31.94837937 -41.78397972 24.54860082 -41 16 C-39.23386585 9.88716263 -36.26939894 3.92446225 -30.6640625 0.625 C-20.0323363 -4.86234255 -10.81814928 -6.01217704 0 0 Z M-24 12 C-24 12.99 -24 13.98 -24 15 C-22.06280622 15.05406122 -20.12518079 15.09282025 -18.1875 15.125 C-17.10855469 15.14820313 -16.02960938 15.17140625 -14.91796875 15.1953125 C-11.80597132 15.23023717 -11.80597132 15.23023717 -9 13 C-9.66 11.68 -10.32 10.36 -11 9 C-18.21709457 8.31303554 -18.21709457 8.31303554 -24 12 Z " fill="#E6FD4A" transform="translate(260,56)"/>
<path d="M0 0 C4.62 0 9.24 0 14 0 C14 4.62 14 9.24 14 14 C18.29 14 22.58 14 27 14 C27 18.29 27 22.58 27 27 C22.71 27 18.42 27 14 27 C14.14012137 30.64613696 14.28681398 34.29179789 14.4375 37.9375 C14.47681641 38.97841797 14.51613281 40.01933594 14.55664062 41.09179688 C14.59853516 42.08115234 14.64042969 43.07050781 14.68359375 44.08984375 C14.72025146 45.00628662 14.75690918 45.92272949 14.79467773 46.86694336 C14.77003864 48.9820728 14.77003864 48.9820728 16 50 C20.30996812 49.59339923 23.08262477 48.95868762 27 47 C27 51.62 27 56.24 27 61 C20.16899619 64.41550191 20.16899619 64.41550191 14.9375 64.375 C13.43509766 64.38660156 13.43509766 64.38660156 11.90234375 64.3984375 C7.36655871 63.77575907 3.91617809 61.49941371 1 58 C-0.11911712 54.64264863 -0.11365586 52.11794614 -0.09765625 48.58203125 C-0.09443359 47.32841797 -0.09121094 46.07480469 -0.08789062 44.78320312 C-0.07951172 43.47287109 -0.07113281 42.16253906 -0.0625 40.8125 C-0.05748317 39.47721519 -0.05292059 38.14192859 -0.04882812 36.80664062 C-0.03702695 33.53771527 -0.02056297 30.26888009 0 27 C-1.98 27 -3.96 27 -6 27 C-6 22.71 -6 18.42 -6 14 C-4.02 14 -2.04 14 0 14 C0 9.38 0 4.76 0 0 Z " fill="#E6FD49" transform="translate(41,39)"/>
<path d="M0 0 C9.24 0 18.48 0 28 0 C28 4.29 28 8.58 28 13 C21.565 13.495 21.565 13.495 15 14 C15 25.88 15 37.76 15 50 C10.05 50 5.1 50 0 50 C0 33.5 0 17 0 0 Z " fill="#E7FD45" transform="translate(75,53)"/>
<path d="M0 0 C3.375 -0.125 3.375 -0.125 7 0 C7.66 0.66 8.32 1.32 9 2 C8.625 4.625 8.625 4.625 8 7 C7.360625 7.103125 6.72125 7.20625 6.0625 7.3125 C5.381875 7.539375 4.70125 7.76625 4 8 C3.67 8.99 3.34 9.98 3 11 C2.01 11 1.02 11 0 11 C0 7.37 0 3.74 0 0 Z M3 3 C3.66 3.66 4.32 4.32 5 5 C5 4.34 5 3.68 5 3 C4.34 3 3.68 3 3 3 Z " fill="#E8FD48" transform="translate(92,115)"/>
<path d="M0 0 C1.134375 0.020625 2.26875 0.04125 3.4375 0.0625 C3.4375 2.7025 3.4375 5.3425 3.4375 8.0625 C-2.1875 8.3125 -2.1875 8.3125 -5.5625 6.0625 C-4.48849278 0.07874549 -4.48849278 0.07874549 0 0 Z M-1.5625 3.0625 C-0.5625 5.0625 -0.5625 5.0625 -0.5625 5.0625 Z " fill="#E9FD46" transform="translate(146.5625,114.9375)"/>
<path d="M0 0 C2.33294775 -0.04241723 4.66702567 -0.04092937 7 0 C8 1 8 1 8.0625 4.5625 C8.041875 5.696875 8.02125 6.83125 8 8 C5.36 8 2.72 8 0 8 C0 5.36 0 2.72 0 0 Z " fill="#E8FA49" transform="translate(203,115)"/>
<path d="M0 0 C2.5625 0.1875 2.5625 0.1875 4.5625 2.1875 C4.1875 4.8125 4.1875 4.8125 3.5625 7.1875 C-1.1875 8.3125 -1.1875 8.3125 -3.4375 7.1875 C-3.48004356 5.18795254 -3.47830783 3.18708364 -3.4375 1.1875 C-2.4375 0.1875 -2.4375 0.1875 0 0 Z " fill="#E8FB48" transform="translate(113.4375,114.8125)"/>
<path d="M0 0 C2.5625 0.1875 2.5625 0.1875 4.5625 2.1875 C4.1875 4.8125 4.1875 4.8125 3.5625 7.1875 C1.1875 7.8125 1.1875 7.8125 -1.4375 8.1875 C-3.4375 6.1875 -3.4375 6.1875 -3.625 3.625 C-3.37291261 0.34786389 -3.27713611 0.25208739 0 0 Z M-0.4375 3.1875 C-0.1075 3.8475 0.2225 4.5075 0.5625 5.1875 C0.8925 4.5275 1.2225 3.8675 1.5625 3.1875 C0.9025 3.1875 0.2425 3.1875 -0.4375 3.1875 Z " fill="#E8FC4C" transform="translate(78.4375,114.8125)"/>
<path d="M0 0 C0.625 2.875 0.625 2.875 1 6 C0.34 6.66 -0.32 7.32 -1 8 C-5.55555556 7.44444444 -5.55555556 7.44444444 -7 6 C-7.04063832 4.33382885 -7.042721 2.66611905 -7 1 C-4.53721199 -0.231394 -2.7204945 -0.07159196 0 0 Z M-4 3 C-4 3.66 -4 4.32 -4 5 C-3.34 5 -2.68 5 -2 5 C-2 4.34 -2 3.68 -2 3 C-2.66 3 -3.32 3 -4 3 Z " fill="#E8FC49" transform="translate(193,115)"/>
<path d="M0 0 C1.32 0 2.64 0 4 0 C4 3.63 4 7.26 4 11 C2.68 11 1.36 11 0 11 C0 7.37 0 3.74 0 0 Z " fill="#EAFC4A" transform="translate(173,112)"/>
<path d="M0 0 C0.99 0 1.98 0 3 0 C3.95024979 3.69541586 3.95024979 6.30458414 3 10 C2.01 10 1.02 10 0 10 C-1.125 2.25 -1.125 2.25 0 0 Z " fill="#E5FA49" transform="translate(160,113)"/>
<path d="M0 0 C1.98 0 3.96 0 6 0 C6 0.99 6 1.98 6 3 C5.01 3 4.02 3 3 3 C3 4.65 3 6.3 3 8 C2.01 8 1.02 8 0 8 C0 5.36 0 2.72 0 0 Z " fill="#E8FA40" transform="translate(127,115)"/>
</svg>
